<?xml version="1.0" standalone="no"?>
<!DOCTYPE svg PUBLIC "-//W3C//DTD SVG 20010904//EN"
 "http://www.w3.org/TR/2001/REC-SVG-20010904/DTD/svg10.dtd">
<svg version="1.0" xmlns="http://www.w3.org/2000/svg"
 width="512.000000pt" height="512.000000pt" viewBox="0 0 512.000000 512.000000"
 preserveAspectRatio="xMidYMid meet">
<metadata>
Created by potrace 1.11, written by Peter Selinger 2001-2013
</metadata>
<g transform="translate(0.000000,512.000000) scale(0.100000,-0.100000)"
fill="#000000" stroke="none">
<path d="M2477 4694 c-2 -2 -151 -14 -177 -15 -14 -1 -166 -27 -202 -35 -10
-2 -26 -6 -36 -8 -9 -2 -37 -10 -62 -17 -25 -7 -50 -13 -57 -15 -10 -2 -54
-18 -238 -88 -16 -6 -36 -15 -43 -20 -7 -4 -46 -24 -85 -44 -40 -19 -75 -40
-79 -46 -4 -6 -8 -7 -8 -3 0 11 -210 -134 -285 -196 -72 -61 -248 -237 -292
-292 -18 -22 -46 -58 -62 -80 -17 -22 -35 -45 -41 -52 -5 -7 -10 -17 -10 -23
0 -5 -4 -10 -8 -10 -5 0 -14 -10 -20 -22 -6 -13 -25 -45 -41 -73 -129 -215
-238 -504 -266 -705 -3 -19 -7 -42 -10 -50 -27 -96 -34 -472 -11 -605 3 -16 8
-52 12 -80 6 -47 8 -62 18 -103 2 -9 9 -38 15 -63 6 -26 23 -84 38 -130 15
-46 27 -86 28 -89 12 -41 82 -197 122 -270 43 -80 148 -249 162 -260 3 -3 26
-32 51 -65 48 -65 261 -281 324 -330 22 -16 44 -35 50 -41 15 -14 153 -107
207 -138 45 -27 180 -99 189 -101 7 -2 42 -17 115 -50 33 -15 60 -26 60 -24 0
1 43 -12 95 -28 97 -31 213 -59 285 -69 22 -3 51 -7 65 -10 94 -16 386 -23
480 -10 25 3 68 8 95 11 77 10 246 45 267 56 10 5 18 8 18 5 0 -3 26 4 58 15
31 11 64 22 72 24 32 7 199 81 280 123 116 61 269 161 365 241 76 63 125 109
125 118 0 10 -262 264 -269 261 -5 -2 -30 -22 -57 -46 -46 -40 -139 -112 -180
-140 -87 -58 -259 -149 -314 -166 -14 -5 -27 -9 -30 -10 -92 -40 -265 -85
-405 -104 -27 -4 -129 -7 -225 -7 -160 0 -219 4 -305 21 -16 3 -41 7 -55 9
-14 2 -26 4 -27 6 -3 2 -6 3 -53 13 -30 6 -89 25 -140 44 -8 3 -17 6 -20 6 -3
1 -21 8 -40 15 -146 59 -278 134 -414 234 -146 108 -356 338 -427 467 -8 14
-17 27 -20 30 -13 11 -85 158 -139 285 -8 18 -22 62 -25 75 -1 3 -8 30 -17 60
-20 64 -45 183 -54 255 -11 83 -13 356 -3 425 5 36 11 76 13 90 2 14 6 36 9
50 4 14 16 63 27 110 11 47 26 101 34 120 8 19 24 60 36 90 34 85 71 160 107
218 18 29 33 57 33 62 0 6 4 10 9 10 5 0 13 9 16 20 3 11 12 26 18 32 7 7 32
40 56 73 92 124 270 287 426 392 88 59 287 161 320 163 3 0 24 9 47 19 49 20
183 57 243 67 22 3 43 8 46 10 30 18 434 26 534 11 124 -20 218 -42 315 -74
116 -38 310 -129 380 -178 25 -17 53 -34 63 -38 9 -3 17 -11 17 -17 0 -5 5
-10 11 -10 10 0 97 -66 124 -94 6 -6 25 -24 42 -40 l31 -28 136 135 136 136
-32 32 c-48 48 -202 169 -288 226 -171 114 -475 249 -629 279 -12 3 -53 12
-89 20 -83 19 -104 23 -252 39 -47 6 -279 13 -283 9z"/>
<path d="M2428 3935 c-2 -1 -25 -5 -53 -9 -62 -7 -76 -10 -150 -30 -33 -9 -69
-19 -80 -21 -50 -11 -285 -119 -320 -147 -5 -5 -46 -35 -90 -67 -188 -139
-361 -360 -445 -571 -12 -30 -26 -64 -30 -75 -15 -38 -23 -60 -25 -75 -1 -8
-8 -37 -15 -65 -6 -27 -14 -59 -16 -70 -10 -42 -17 -144 -17 -250 -1 -138 10
-226 39 -335 8 -30 16 -60 18 -67 1 -7 5 -16 9 -19 4 -4 7 -16 7 -27 0 -55
171 -359 243 -429 15 -15 27 -30 27 -33 0 -4 49 -52 161 -157 11 -10 23 -18
28 -18 5 0 11 -4 13 -9 3 -10 120 -86 188 -122 131 -71 314 -129 465 -147 76
-9 295 -8 360 1 101 14 216 41 247 58 10 5 23 9 28 9 15 0 182 72 197 85 6 5
39 25 72 44 66 37 217 159 214 172 -2 5 -60 66 -131 137 l-127 128 -65 -53
c-36 -29 -71 -53 -77 -53 -7 0 -13 -4 -13 -8 0 -19 -175 -95 -278 -121 -224
-57 -440 -39 -653 53 -161 70 -316 198 -427 354 -66 93 -141 282 -160 402 -10
62 -9 292 1 335 3 11 10 40 17 65 7 25 13 52 15 60 2 8 9 29 16 45 7 17 13 32
13 35 5 22 86 166 119 210 42 57 203 220 218 220 4 0 14 6 21 13 56 51 284
149 380 162 166 23 253 23 380 0 156 -29 356 -128 470 -232 l26 -25 131 131
c72 72 131 134 131 138 0 8 -139 122 -195 160 -108 73 -314 160 -450 188 -44
9 -89 19 -100 22 -21 5 -332 13 -337 8z"/>
<path d="M2468 3176 c-38 -4 -68 -13 -68 -18 0 -5 -5 -6 -11 -3 -16 11 -142
-50 -204 -98 -157 -122 -244 -296 -247 -493 -3 -199 90 -382 255 -508 49 -37
147 -86 171 -86 7 0 16 -3 20 -7 3 -4 12 -8 19 -9 7 -1 32 -5 57 -9 93 -15
213 -7 300 22 55 18 197 101 204 120 4 8 -47 67 -127 146 l-132 132 -55 -22
c-122 -48 -264 12 -311 133 -31 80 -2 201 61 257 70 63 187 79 268 38 l44 -22
134 136 c74 74 134 137 134 139 0 7 -98 75 -137 94 -49 25 -130 51 -165 54
-16 1 -28 5 -28 8 0 8 -108 6 -182 -4z"/>
</g>
</svg>
